<?xml version="1.0" encoding="UTF-8" standalone="no"?>
<!DOCTYPE score-partwise PUBLIC "-//Recordare//DTD MusicXML 1.0 Partwise//EN" "http://www.musicxml.org/dtds/partwise.dtd">
<score-partwise>
	<work>
		<work-title>test_tabledit.tef</work-title>
	</work>
	<identification>
		<creator type="composer"></creator>
		<encoding>
			<encoder>Mike J Beaumier</encoder>
			<software>TablEdit</software>
		</encoding>
	</identification>
	<part-list>
		<score-part id="P1">
			<part-name>Banjo Open G</part-name>
			<score-instrument id="P1-I1">
				<instrument-name>Banjo</instrument-name>
			</score-instrument>
			<midi-instrument id="P1-I1">
				<midi-channel>1</midi-channel>
				<midi-program>106</midi-program>
			</midi-instrument>
		</score-part>
	</part-list>
	<part id="P1">
		<measure number="1">
			<attributes>
				<divisions>240</divisions>
				<key>
					<fifths>0</fifths>
				</key>
				<time>
					<beats>4</beats>
					<beat-type>4</beat-type>
				</time>
				<clef>
					<sign>TAB</sign>
					<line>5</line>
				</clef>
				<staff-details>
					<staff-lines>5</staff-lines>
					<staff-tuning line="1">
						<tuning-step>G</tuning-step>
						<tuning-octave>4</tuning-octave>
					</staff-tuning>
					<staff-tuning line="2">
						<tuning-step>D</tuning-step>
						<tuning-octave>3</tuning-octave>
					</staff-tuning>
					<staff-tuning line="3">
						<tuning-step>G</tuning-step>
						<tuning-octave>3</tuning-octave>
					</staff-tuning>
					<staff-tuning line="4">
						<tuning-step>B</tuning-step>
						<tuning-octave>3</tuning-octave>
					</staff-tuning>
					<staff-tuning line="5">
						<tuning-step>D</tuning-step>
						<tuning-octave>4</tuning-octave>
					</staff-tuning>
				</staff-details>
			</attributes>
			<sound tempo="120"/>
			<note>
				<pitch>
					<step>G</step>
					<octave>3</octave>
				</pitch>
				<duration>120</duration>
				<voice>1</voice>
				<type>eighth</type>
				<stem>down</stem>
				<beam number="1">begin</beam>
				<notations>
					<technical>
						<string>4</string>
						<fret>5</fret>
					</technical>
				</notations>
			</note>
			<note>
				<pitch>
					<step>B</step>
					<octave>3</octave>
				</pitch>
				<duration>120</duration>
				<voice>1</voice>
				<type>eighth</type>
				<stem>down</stem>
				<beam number="1">end</beam>
				<notations>
					<technical>
						<string>3</string>
						<fret>4</fret>
					</technical>
				</notations>
			</note>
			<note>
				<chord/>
				<pitch>
					<step>D</step>
					<octave>4</octave>
				</pitch>
				<duration>120</duration>
				<voice>1</voice>
				<type>eighth</type>
				<stem>down</stem>
				<beam number="1">end</beam>
				<notations>
					<technical>
						<string>2</string>
						<fret>3</fret>
					</technical>
				</notations>
			</note>
			<note>
				<chord/>
				<pitch>
					<step>G</step>
					<octave>4</octave>
				</pitch>
				<duration>120</duration>
				<voice>1</voice>
				<type>eighth</type>
				<stem>down</stem>
				<beam number="1">end</beam>
				<notations>
					<technical>
						<string>1</string>
						<fret>5</fret>
					</technical>
				</notations>
			</note>
			<note>
				<pitch>
					<step>G</step>
					<octave>3</octave>
				</pitch>
				<duration>60</duration>
				<voice>1</voice>
				<type>16th</type>
				<stem>down</stem>
				<beam number="2">begin</beam>
				<notations>
					<technical>
						<string>4</string>
						<fret>5</fret>
					</technical>
				</notations>
			</note>
			<note>
				<pitch>
					<step>D</step>
					<octave>4</octave>
				</pitch>
				<duration>60</duration>
				<voice>1</voice>
				<type>16th</type>
				<stem>down</stem>
				<beam number="2">continue</beam>
				<notations>
					<technical>
						<string>2</string>
						<fret>3</fret>
					</technical>
				</notations>
			</note>
			<note>
				<pitch>
					<step>B</step>
					<octave>3</octave>
				</pitch>
				<duration>60</duration>
				<voice>1</voice>
				<type>16th</type>
				<stem>down</stem>
				<beam number="2">continue</beam>
				<notations>
					<technical>
						<string>3</string>
						<fret>4</fret>
					</technical>
				</notations>
			</note>
			<note>
				<pitch>
					<step>G</step>
					<octave>4</octave>
				</pitch>
				<duration>60</duration>
				<voice>1</voice>
				<type>16th</type>
				<stem>down</stem>
				<beam number="2">end</beam>
				<notations>
					<technical>
						<string>1</string>
						<fret>5</fret>
					</technical>
				</notations>
			</note>
			<note>
				<pitch>
					<step>B</step>
					<octave>3</octave>
				</pitch>
				<duration>60</duration>
				<voice>1</voice>
				<type>16th</type>
				<stem>down</stem>
				<beam number="2">begin</beam>
				<notations>
					<technical>
						<string>4</string>
						<fret>9</fret>
					</technical>
				</notations>
			</note>
			<note>
				<pitch>
					<step>F</step>
					<octave>4</octave>
				</pitch>
				<duration>60</duration>
				<voice>1</voice>
				<type>16th</type>
				<stem>down</stem>
				<beam number="2">continue</beam>
				<notations>
					<technical>
						<string>2</string>
						<fret>6</fret>
					</technical>
				</notations>
			</note>
			<note>
				<pitch>
					<step>D</step>
					<octave>4</octave>
				</pitch>
				<duration>60</duration>
				<voice>1</voice>
				<type>16th</type>
				<stem>down</stem>
				<beam number="2">continue</beam>
				<notations>
					<technical>
						<string>3</string>
						<fret>7</fret>
					</technical>
				</notations>
			</note>
			<note>
				<pitch>
					<step>B</step>
					<octave>4</octave>
				</pitch>
				<duration>60</duration>
				<voice>1</voice>
				<type>16th</type>
				<stem>down</stem>
				<beam number="2">end</beam>
				<notations>
					<technical>
						<string>1</string>
						<fret>9</fret>
					</technical>
				</notations>
			</note>
			<note>
				<pitch>
					<step>G</step>
					<octave>4</octave>
				</pitch>
				<duration>60</duration>
				<voice>1</voice>
				<type>16th</type>
				<stem>down</stem>
				<beam number="2">begin</beam>
				<notations>
					<technical>
						<string>5</string>
						<fret>0</fret>
					</technical>
				</notations>
			</note>
			<note>
				<pitch>
					<step>F</step>
					<octave>4</octave>
				</pitch>
				<duration>60</duration>
				<voice>1</voice>
				<type>16th</type>
				<stem>down</stem>
				<beam number="2">continue</beam>
				<notations>
					<technical>
						<string>2</string>
						<fret>6</fret>
					</technical>
				</notations>
			</note>
			<note>
				<pitch>
					<step>D</step>
					<octave>4</octave>
				</pitch>
				<duration>60</duration>
				<voice>1</voice>
				<type>16th</type>
				<stem>down</stem>
				<beam number="2">continue</beam>
				<notations>
					<technical>
						<string>3</string>
						<fret>7</fret>
					</technical>
				</notations>
			</note>
			<note>
				<pitch>
					<step>B</step>
					<octave>4</octave>
				</pitch>
				<duration>60</duration>
				<voice>1</voice>
				<type>16th</type>
				<stem>down</stem>
				<beam number="2">end</beam>
				<notations>
					<technical>
						<string>1</string>
						<fret>9</fret>
					</technical>
				</notations>
			</note>
		</measure>
		<measure number="2">
			<note>
				<pitch>
					<step>C</step>
					<octave>4</octave>
				</pitch>
				<duration>120</duration>
				<voice>1</voice>
				<type>eighth</type>
				<stem>down</stem>
				<beam number="1">begin</beam>
				<notations>
					<technical>
						<string>4</string>
						<fret>10</fret>
					</technical>
				</notations>
			</note>
			<note>
				<pitch>
					<step>E</step>
					<octave>4</octave>
				</pitch>
				<duration>120</duration>
				<voice>1</voice>
				<type>eighth</type>
				<stem>down</stem>
				<beam number="1">end</beam>
				<notations>
					<technical>
						<string>3</string>
						<fret>9</fret>
					</technical>
				</notations>
			</note>
			<note>
				<chord/>
				<pitch>
					<step>G</step>
					<octave>4</octave>
				</pitch>
				<duration>120</duration>
				<voice>1</voice>
				<type>eighth</type>
				<stem>down</stem>
				<beam number="1">end</beam>
				<notations>
					<technical>
						<string>2</string>
						<fret>8</fret>
					</technical>
				</notations>
			</note>
			<note>
				<chord/>
				<pitch>
					<step>C</step>
					<octave>5</octave>
				</pitch>
				<duration>120</duration>
				<voice>1</voice>
				<type>eighth</type>
				<stem>down</stem>
				<beam number="1">end</beam>
				<notations>
					<technical>
						<string>1</string>
						<fret>10</fret>
					</technical>
				</notations>
			</note>
			<note>
				<pitch>
					<step>C</step>
					<octave>4</octave>
				</pitch>
				<duration>60</duration>
				<voice>1</voice>
				<type>16th</type>
				<stem>down</stem>
				<beam number="2">begin</beam>
				<notations>
					<technical>
						<string>4</string>
						<fret>10</fret>
					</technical>
				</notations>
			</note>
			<note>
				<pitch>
					<step>G</step>
					<octave>4</octave>
				</pitch>
				<duration>60</duration>
				<voice>1</voice>
				<type>16th</type>
				<stem>down</stem>
				<beam number="2">continue</beam>
				<notations>
					<technical>
						<string>2</string>
						<fret>8</fret>
					</technical>
				</notations>
			</note>
			<note>
				<pitch>
					<step>E</step>
					<octave>4</octave>
				</pitch>
				<duration>60</duration>
				<voice>1</voice>
				<type>16th</type>
				<stem>down</stem>
				<beam number="2">continue</beam>
				<notations>
					<technical>
						<string>3</string>
						<fret>9</fret>
					</technical>
				</notations>
			</note>
			<note>
				<pitch>
					<step>C</step>
					<octave>5</octave>
				</pitch>
				<duration>60</duration>
				<voice>1</voice>
				<type>16th</type>
				<stem>down</stem>
				<beam number="2">end</beam>
				<notations>
					<technical>
						<string>1</string>
						<fret>10</fret>
					</technical>
				</notations>
			</note>
			<note>
				<pitch>
					<step>C</step>
					<alter>1</alter>
					<octave>4</octave>
				</pitch>
				<duration>60</duration>
				<voice>1</voice>
				<type>16th</type>
				<stem>down</stem>
				<beam number="2">begin</beam>
				<notations>
					<technical>
						<string>4</string>
						<fret>11</fret>
					</technical>
				</notations>
			</note>
			<note>
				<pitch>
					<step>G</step>
					<octave>4</octave>
				</pitch>
				<duration>60</duration>
				<voice>1</voice>
				<type>16th</type>
				<stem>down</stem>
				<beam number="2">continue</beam>
				<notations>
					<technical>
						<string>2</string>
						<fret>8</fret>
					</technical>
				</notations>
			</note>
			<note>
				<pitch>
					<step>E</step>
					<octave>4</octave>
				</pitch>
				<duration>60</duration>
				<voice>1</voice>
				<type>16th</type>
				<stem>down</stem>
				<beam number="2">continue</beam>
				<notations>
					<technical>
						<string>3</string>
						<fret>9</fret>
					</technical>
				</notations>
			</note>
			<note>
				<pitch>
					<step>C</step>
					<alter>1</alter>
					<octave>5</octave>
				</pitch>
				<duration>60</duration>
				<voice>1</voice>
				<type>16th</type>
				<stem>down</stem>
				<beam number="2">end</beam>
				<notations>
					<technical>
						<string>1</string>
						<fret>11</fret>
					</technical>
				</notations>
			</note>
			<note>
				<pitch>
					<step>G</step>
					<octave>4</octave>
				</pitch>
				<duration>60</duration>
				<voice>1</voice>
				<type>16th</type>
				<stem>down</stem>
				<beam number="2">begin</beam>
				<notations>
					<technical>
						<string>5</string>
						<fret>0</fret>
					</technical>
				</notations>
			</note>
			<note>
				<pitch>
					<step>G</step>
					<octave>4</octave>
				</pitch>
				<duration>60</duration>
				<voice>1</voice>
				<type>16th</type>
				<stem>down</stem>
				<beam number="2">continue</beam>
				<notations>
					<technical>
						<string>2</string>
						<fret>8</fret>
					</technical>
				</notations>
			</note>
			<note>
				<pitch>
					<step>E</step>
					<octave>4</octave>
				</pitch>
				<duration>60</duration>
				<voice>1</voice>
				<type>16th</type>
				<stem>down</stem>
				<beam number="2">continue</beam>
				<notations>
					<technical>
						<string>3</string>
						<fret>9</fret>
					</technical>
				</notations>
			</note>
			<note>
				<pitch>
					<step>D</step>
					<octave>5</octave>
				</pitch>
				<duration>60</duration>
				<voice>1</voice>
				<type>16th</type>
				<stem>down</stem>
				<beam number="2">end</beam>
				<notations>
					<technical>
						<string>1</string>
						<fret>12</fret>
					</technical>
				</notations>
			</note>
		</measure>
		<measure number="3">
			<forward>
				<duration>60</duration>
			</forward>
			<note>
				<pitch>
					<step>C</step>
					<alter>1</alter>
					<octave>5</octave>
				</pitch>
				<duration>60</duration>
				<voice>1</voice>
				<type>16th</type>
				<stem>down</stem>
				<beam number="2">begin</beam>
				<notations>
					<technical>
						<string>1</string>
						<fret>11</fret>
					</technical>
				</notations>
			</note>
			<note>
				<pitch>
					<step>C</step>
					<octave>5</octave>
				</pitch>
				<duration>60</duration>
				<voice>1</voice>
				<type>16th</type>
				<stem>down</stem>
				<beam number="2">continue</beam>
				<notations>
					<technical>
						<string>1</string>
						<fret>10</fret>
					</technical>
				</notations>
			</note>
			<note>
				<pitch>
					<step>A</step>
					<alter>1</alter>
					<octave>4</octave>
				</pitch>
				<duration>60</duration>
				<voice>1</voice>
				<type>16th</type>
				<stem>down</stem>
				<beam number="2">end</beam>
				<notations>
					<technical>
						<string>2</string>
						<fret>11</fret>
					</technical>
				</notations>
			</note>
			<note>
				<pitch>
					<step>B</step>
					<octave>4</octave>
				</pitch>
				<duration>60</duration>
				<voice>1</voice>
				<type>16th</type>
				<stem>down</stem>
				<beam number="2">begin</beam>
				<notations>
					<technical>
						<string>2</string>
						<fret>12</fret>
					</technical>
				</notations>
			</note>
			<note>
				<pitch>
					<step>G</step>
					<octave>4</octave>
				</pitch>
				<duration>60</duration>
				<voice>1</voice>
				<type>16th</type>
				<stem>down</stem>
				<beam number="2">continue</beam>
				<notations>
					<technical>
						<string>2</string>
						<fret>8</fret>
					</technical>
				</notations>
			</note>
			<note>
				<pitch>
					<step>E</step>
					<octave>4</octave>
				</pitch>
				<duration>60</duration>
				<voice>1</voice>
				<type>16th</type>
				<stem>down</stem>
				<beam number="2">continue</beam>
				<notations>
					<technical>
						<string>3</string>
						<fret>9</fret>
					</technical>
				</notations>
			</note>
			<note>
				<pitch>
					<step>D</step>
					<octave>4</octave>
				</pitch>
				<duration>60</duration>
				<voice>1</voice>
				<type>16th</type>
				<stem>down</stem>
				<beam number="2">end</beam>
				<notations>
					<technical>
						<string>3</string>
						<fret>7</fret>
					</technical>
				</notations>
			</note>
			<note>
				<pitch>
					<step>G</step>
					<octave>4</octave>
				</pitch>
				<duration>60</duration>
				<voice>1</voice>
				<type>16th</type>
				<stem>down</stem>
				<beam number="2">begin</beam>
				<notations>
					<technical>
						<string>2</string>
						<fret>8</fret>
					</technical>
				</notations>
			</note>
			<note>
				<pitch>
					<step>E</step>
					<octave>4</octave>
				</pitch>
				<duration>60</duration>
				<voice>1</voice>
				<type>16th</type>
				<stem>down</stem>
				<beam number="2">continue</beam>
				<notations>
					<technical>
						<string>3</string>
						<fret>9</fret>
					</technical>
				</notations>
			</note>
			<note>
				<pitch>
					<step>D</step>
					<octave>4</octave>
				</pitch>
				<duration>60</duration>
				<voice>1</voice>
				<type>16th</type>
				<stem>down</stem>
				<beam number="2">continue</beam>
				<notations>
					<technical>
						<string>3</string>
						<fret>7</fret>
					</technical>
				</notations>
			</note>
			<note>
				<pitch>
					<step>A</step>
					<alter>1</alter>
					<octave>3</octave>
				</pitch>
				<duration>60</duration>
				<voice>1</voice>
				<type>16th</type>
				<stem>down</stem>
				<beam number="2">end</beam>
				<notations>
					<technical>
						<string>4</string>
						<fret>8</fret>
					</technical>
				</notations>
			</note>
			<note>
				<pitch>
					<step>A</step>
					<octave>3</octave>
				</pitch>
				<duration>60</duration>
				<voice>1</voice>
				<type>16th</type>
				<stem>down</stem>
				<beam number="2">begin</beam>
				<notations>
					<technical>
						<string>4</string>
						<fret>7</fret>
					</technical>
				</notations>
			</note>
			<note>
				<pitch>
					<step>G</step>
					<octave>3</octave>
				</pitch>
				<duration>60</duration>
				<voice>1</voice>
				<type>16th</type>
				<stem>down</stem>
				<beam number="2">continue</beam>
				<notations>
					<technical>
						<string>3</string>
						<fret>0</fret>
					</technical>
				</notations>
			</note>
			<note>
				<pitch>
					<step>E</step>
					<octave>3</octave>
				</pitch>
				<duration>60</duration>
				<voice>1</voice>
				<type>16th</type>
				<stem>down</stem>
				<beam number="2">continue</beam>
				<notations>
					<technical>
						<string>4</string>
						<fret>2</fret>
					</technical>
				</notations>
			</note>
			<note>
				<pitch>
					<step>D</step>
					<octave>3</octave>
				</pitch>
				<duration>60</duration>
				<voice>1</voice>
				<type>16th</type>
				<stem>down</stem>
				<beam number="2">end</beam>
				<notations>
					<technical>
						<string>4</string>
						<fret>0</fret>
					</technical>
				</notations>
			</note>
		</measure>
		<measure number="4">
			<note>
				<pitch>
					<step>G</step>
					<octave>3</octave>
				</pitch>
				<duration>60</duration>
				<voice>1</voice>
				<type>16th</type>
				<stem>down</stem>
				<beam number="2">begin</beam>
				<notations>
					<technical>
						<string>3</string>
						<fret>0</fret>
					</technical>
				</notations>
			</note>
			<note>
				<pitch>
					<step>A</step>
					<octave>3</octave>
				</pitch>
				<duration>45</duration>
				<voice>1</voice>
				<type>32nd</type>
				<dot/>
				<stem>down</stem>
				<beam number="3">continue</beam>
				<notations>
					<technical>
						<string>3</string>
						<fret>2</fret>
					</technical>
				</notations>
			</note>
			<note>
				<pitch>
					<step>A</step>
					<alter>1</alter>
					<octave>3</octave>
				</pitch>
				<duration>60</duration>
				<voice>1</voice>
				<type>16th</type>
				<stem>down</stem>
				<beam number="2">end</beam>
				<notations>
					<technical>
						<string>3</string>
						<fret>3</fret>
					</technical>
				</notations>
			</note>
			<forward>
				<duration>15</duration>
			</forward>
			<note>
				<pitch>
					<step>A</step>
					<octave>3</octave>
				</pitch>
				<duration>30</duration>
				<voice>1</voice>
				<type>32nd</type>
				<stem>down</stem>
				<beam number="3">begin</beam>
				<notations>
					<technical>
						<string>3</string>
						<fret>2</fret>
					</technical>
				</notations>
			</note>
			<note>
				<pitch>
					<step>A</step>
					<alter>1</alter>
					<octave>3</octave>
				</pitch>
				<duration>30</duration>
				<voice>1</voice>
				<type>32nd</type>
				<stem>down</stem>
				<beam number="3">end</beam>
				<notations>
					<technical>
						<string>3</string>
						<fret>3</fret>
					</technical>
				</notations>
			</note>
			<note>
				<pitch>
					<step>A</step>
					<octave>3</octave>
				</pitch>
				<duration>60</duration>
				<voice>1</voice>
				<type>16th</type>
				<stem>down</stem>
				<beam number="2">begin</beam>
				<notations>
					<technical>
						<string>3</string>
						<fret>2</fret>
					</technical>
				</notations>
			</note>
			<note>
				<pitch>
					<step>G</step>
					<octave>3</octave>
				</pitch>
				<duration>60</duration>
				<voice>1</voice>
				<type>16th</type>
				<stem>down</stem>
				<beam number="2">continue</beam>
				<notations>
					<technical>
						<string>3</string>
						<fret>0</fret>
					</technical>
				</notations>
			</note>
			<note>
				<pitch>
					<step>E</step>
					<octave>3</octave>
				</pitch>
				<duration>60</duration>
				<voice>1</voice>
				<type>16th</type>
				<stem>down</stem>
				<beam number="2">continue</beam>
				<notations>
					<technical>
						<string>4</string>
						<fret>2</fret>
					</technical>
				</notations>
			</note>
			<note>
				<pitch>
					<step>D</step>
					<octave>3</octave>
				</pitch>
				<duration>60</duration>
				<voice>1</voice>
				<type>16th</type>
				<stem>down</stem>
				<beam number="2">end</beam>
				<notations>
					<technical>
						<string>4</string>
						<fret>0</fret>
					</technical>
				</notations>
			</note>
			<note>
				<pitch>
					<step>G</step>
					<octave>3</octave>
				</pitch>
				<duration>60</duration>
				<voice>1</voice>
				<type>16th</type>
				<stem>down</stem>
				<beam number="2">begin</beam>
				<notations>
					<technical>
						<string>3</string>
						<fret>0</fret>
					</technical>
				</notations>
			</note>
			<note>
				<pitch>
					<step>D</step>
					<octave>3</octave>
				</pitch>
				<duration>180</duration>
				<voice>1</voice>
				<type>eighth</type>
				<dot/>
				<stem>down</stem>
				<beam number="1">end</beam>
				<notations>
					<technical>
						<string>4</string>
						<fret>0</fret>
					</technical>
				</notations>
			</note>
			<note>
				<pitch>
					<step>E</step>
					<octave>3</octave>
				</pitch>
				<duration>120</duration>
				<voice>1</voice>
				<type>eighth</type>
				<stem>down</stem>
				<beam number="1">begin</beam>
				<notations>
					<technical>
						<string>4</string>
						<fret>2</fret>
					</technical>
				</notations>
			</note>
			<note>
				<pitch>
					<step>F</step>
					<alter>1</alter>
					<octave>3</octave>
				</pitch>
				<duration>120</duration>
				<voice>1</voice>
				<type>eighth</type>
				<stem>down</stem>
				<beam number="1">end</beam>
				<notations>
					<technical>
						<string>4</string>
						<fret>4</fret>
					</technical>
				</notations>
			</note>
		</measure>
		<measure number="5">
			<note>
				<pitch>
					<step>G</step>
					<octave>3</octave>
				</pitch>
				<duration>960</duration>
				<voice>2</voice>
				<type>whole</type>
				<stem>down</stem>
				<notations>
					<technical>
						<string>3</string>
						<fret>0</fret>
					</technical>
				</notations>
			</note>
		</measure>
		<measure number="6">
		</measure>
		<measure number="7">
		</measure>
		<measure number="8">
		</measure>
		<measure number="9">
		</measure>
		<measure number="10">
		</measure>
		<measure number="11">
		</measure>
		<measure number="12">
		</measure>
		<measure number="13">
		</measure>
		<measure number="14">
		</measure>
		<measure number="15">
		</measure>
		<measure number="16">
		</measure>
		<measure number="17">
		</measure>
		<measure number="18">
		</measure>
		<measure number="19">
		</measure>
		<measure number="20">
		</measure>
		<measure number="21">
		</measure>
		<measure number="22">
		</measure>
		<measure number="23">
		</measure>
		<measure number="24">
		</measure>
	</part>
</score-partwise>
